<mxfile host="app.diagrams.net" modified="2023-12-01T07:26:44.342Z" agent="Mozilla/5.0 (Windows NT 10.0; Win64; x64) AppleWebKit/537.36 (KHTML, like Gecko) Chrome/119.0.0.0 Safari/537.36" etag="_B4Cr63Y7iZsImnzpgv6" version="22.1.4" type="github">
  <diagram name="Page-1" id="9361dd3d-8414-5efd-6122-117bd74ce7a7">
    <mxGraphModel dx="1834" dy="746" grid="1" gridSize="10" guides="1" tooltips="1" connect="1" arrows="1" fold="1" page="0" pageScale="1.5" pageWidth="826" pageHeight="1169" background="none" math="0" shadow="0">
      <root>
        <mxCell id="0" />
        <mxCell id="1" parent="0" />
        <mxCell id="oIaSWCsyc41wVR5_9SYv-131" value="alt" style="shape=umlFrame;whiteSpace=wrap;html=1;pointerEvents=0;fillColor=#ffe6cc;strokeColor=#d79b00;" vertex="1" parent="1">
          <mxGeometry x="220" y="940" width="1050" height="220" as="geometry" />
        </mxCell>
        <mxCell id="oIaSWCsyc41wVR5_9SYv-118" value="alt" style="shape=umlFrame;whiteSpace=wrap;html=1;pointerEvents=0;fillColor=#ffe6cc;strokeColor=#d79b00;" vertex="1" parent="1">
          <mxGeometry x="250" y="720" width="590" height="110" as="geometry" />
        </mxCell>
        <mxCell id="oIaSWCsyc41wVR5_9SYv-89" value="BackupFileJob" style="shape=umlLifeline;perimeter=lifelinePerimeter;whiteSpace=wrap;html=1;container=1;dropTarget=0;collapsible=0;recursiveResize=0;outlineConnect=0;portConstraint=eastwest;newEdgeStyle={&quot;curved&quot;:0,&quot;rounded&quot;:0};" vertex="1" parent="1">
          <mxGeometry x="-110" y="320" width="100" height="505" as="geometry" />
        </mxCell>
        <mxCell id="oIaSWCsyc41wVR5_9SYv-90" value="" style="html=1;points=[[0,0,0,0,5],[0,1,0,0,-5],[1,0,0,0,5],[1,1,0,0,-5]];perimeter=orthogonalPerimeter;outlineConnect=0;targetShapes=umlLifeline;portConstraint=eastwest;newEdgeStyle={&quot;curved&quot;:0,&quot;rounded&quot;:0};" vertex="1" parent="oIaSWCsyc41wVR5_9SYv-89">
          <mxGeometry x="45" y="70" width="10" height="80" as="geometry" />
        </mxCell>
        <mxCell id="oIaSWCsyc41wVR5_9SYv-91" value="BackupFileService" style="shape=umlLifeline;perimeter=lifelinePerimeter;whiteSpace=wrap;html=1;container=1;dropTarget=0;collapsible=0;recursiveResize=0;outlineConnect=0;portConstraint=eastwest;newEdgeStyle={&quot;curved&quot;:0,&quot;rounded&quot;:0};" vertex="1" parent="1">
          <mxGeometry x="65" y="320" width="100" height="505" as="geometry" />
        </mxCell>
        <mxCell id="oIaSWCsyc41wVR5_9SYv-92" value="" style="html=1;points=[[0,0,0,0,5],[0,1,0,0,-5],[1,0,0,0,5],[1,1,0,0,-5]];perimeter=orthogonalPerimeter;outlineConnect=0;targetShapes=umlLifeline;portConstraint=eastwest;newEdgeStyle={&quot;curved&quot;:0,&quot;rounded&quot;:0};" vertex="1" parent="oIaSWCsyc41wVR5_9SYv-91">
          <mxGeometry x="45" y="70" width="10" height="110" as="geometry" />
        </mxCell>
        <mxCell id="oIaSWCsyc41wVR5_9SYv-94" value="开始备份任务&lt;br&gt;BackupFiles()" style="html=1;verticalAlign=bottom;endArrow=block;curved=0;rounded=0;exitX=1;exitY=0;exitDx=0;exitDy=5;exitPerimeter=0;" edge="1" parent="1" source="oIaSWCsyc41wVR5_9SYv-90" target="oIaSWCsyc41wVR5_9SYv-92">
          <mxGeometry x="0.0061" width="80" relative="1" as="geometry">
            <mxPoint x="-10" y="390" as="sourcePoint" />
            <mxPoint x="160.5" y="390" as="targetPoint" />
            <mxPoint as="offset" />
          </mxGeometry>
        </mxCell>
        <mxCell id="oIaSWCsyc41wVR5_9SYv-95" value="NetworkRequestBLL" style="shape=umlLifeline;perimeter=lifelinePerimeter;whiteSpace=wrap;html=1;container=1;dropTarget=0;collapsible=0;recursiveResize=0;outlineConnect=0;portConstraint=eastwest;newEdgeStyle={&quot;curved&quot;:0,&quot;rounded&quot;:0};" vertex="1" parent="1">
          <mxGeometry x="1179.5" y="320" width="115.5" height="1950" as="geometry" />
        </mxCell>
        <mxCell id="oIaSWCsyc41wVR5_9SYv-96" value="" style="html=1;points=[[0,0,0,0,5],[0,1,0,0,-5],[1,0,0,0,5],[1,1,0,0,-5]];perimeter=orthogonalPerimeter;outlineConnect=0;targetShapes=umlLifeline;portConstraint=eastwest;newEdgeStyle={&quot;curved&quot;:0,&quot;rounded&quot;:0};" vertex="1" parent="oIaSWCsyc41wVR5_9SYv-95">
          <mxGeometry x="52.5" y="78" width="10" height="72" as="geometry" />
        </mxCell>
        <mxCell id="oIaSWCsyc41wVR5_9SYv-133" value="" style="html=1;points=[[0,0,0,0,5],[0,1,0,0,-5],[1,0,0,0,5],[1,1,0,0,-5]];perimeter=orthogonalPerimeter;outlineConnect=0;targetShapes=umlLifeline;portConstraint=eastwest;newEdgeStyle={&quot;curved&quot;:0,&quot;rounded&quot;:0};" vertex="1" parent="oIaSWCsyc41wVR5_9SYv-95">
          <mxGeometry x="52.75" y="630" width="10" height="80" as="geometry" />
        </mxCell>
        <mxCell id="oIaSWCsyc41wVR5_9SYv-165" value="" style="html=1;points=[[0,0,0,0,5],[0,1,0,0,-5],[1,0,0,0,5],[1,1,0,0,-5]];perimeter=orthogonalPerimeter;outlineConnect=0;targetShapes=umlLifeline;portConstraint=eastwest;newEdgeStyle={&quot;curved&quot;:0,&quot;rounded&quot;:0};" vertex="1" parent="oIaSWCsyc41wVR5_9SYv-95">
          <mxGeometry x="52.5" y="1809" width="10" height="80" as="geometry" />
        </mxCell>
        <mxCell id="oIaSWCsyc41wVR5_9SYv-170" value="" style="html=1;points=[[0,0,0,0,5],[0,1,0,0,-5],[1,0,0,0,5],[1,1,0,0,-5]];perimeter=orthogonalPerimeter;outlineConnect=0;targetShapes=umlLifeline;portConstraint=eastwest;newEdgeStyle={&quot;curved&quot;:0,&quot;rounded&quot;:0};" vertex="1" parent="oIaSWCsyc41wVR5_9SYv-95">
          <mxGeometry x="52.5" y="960" width="10" height="80" as="geometry" />
        </mxCell>
        <mxCell id="oIaSWCsyc41wVR5_9SYv-97" value="获取待备份文件列表&lt;br&gt;GetBackupFileDetailsForBackup()" style="html=1;verticalAlign=bottom;endArrow=block;curved=0;rounded=0;" edge="1" parent="1" target="oIaSWCsyc41wVR5_9SYv-96">
          <mxGeometry x="0.0008" width="80" relative="1" as="geometry">
            <mxPoint x="120" y="400" as="sourcePoint" />
            <mxPoint x="200" y="400" as="targetPoint" />
            <mxPoint as="offset" />
          </mxGeometry>
        </mxCell>
        <mxCell id="oIaSWCsyc41wVR5_9SYv-98" value="return 备份文件列表" style="html=1;verticalAlign=bottom;endArrow=open;dashed=1;endSize=8;curved=0;rounded=0;" edge="1" parent="1" source="oIaSWCsyc41wVR5_9SYv-96">
          <mxGeometry x="0.0008" relative="1" as="geometry">
            <mxPoint x="775" y="449" as="sourcePoint" />
            <mxPoint x="120" y="449" as="targetPoint" />
            <mxPoint as="offset" />
          </mxGeometry>
        </mxCell>
        <mxCell id="oIaSWCsyc41wVR5_9SYv-99" value="BackupFileBLL" style="shape=umlLifeline;perimeter=lifelinePerimeter;whiteSpace=wrap;html=1;container=1;dropTarget=0;collapsible=0;recursiveResize=0;outlineConnect=0;portConstraint=eastwest;newEdgeStyle={&quot;curved&quot;:0,&quot;rounded&quot;:0};" vertex="1" parent="1">
          <mxGeometry x="270" y="320" width="100" height="1910" as="geometry" />
        </mxCell>
        <mxCell id="oIaSWCsyc41wVR5_9SYv-100" value="" style="html=1;points=[[0,0,0,0,5],[0,1,0,0,-5],[1,0,0,0,5],[1,1,0,0,-5]];perimeter=orthogonalPerimeter;outlineConnect=0;targetShapes=umlLifeline;portConstraint=eastwest;newEdgeStyle={&quot;curved&quot;:0,&quot;rounded&quot;:0};" vertex="1" parent="oIaSWCsyc41wVR5_9SYv-99">
          <mxGeometry x="45" y="160" width="10" height="80" as="geometry" />
        </mxCell>
        <mxCell id="oIaSWCsyc41wVR5_9SYv-107" value="" style="html=1;points=[[0,0,0,0,5],[0,1,0,0,-5],[1,0,0,0,5],[1,1,0,0,-5]];perimeter=orthogonalPerimeter;outlineConnect=0;targetShapes=umlLifeline;portConstraint=eastwest;newEdgeStyle={&quot;curved&quot;:0,&quot;rounded&quot;:0};" vertex="1" parent="oIaSWCsyc41wVR5_9SYv-99">
          <mxGeometry x="45" y="270" width="10" height="740" as="geometry" />
        </mxCell>
        <mxCell id="oIaSWCsyc41wVR5_9SYv-106" value="&amp;nbsp; &amp;nbsp;单个文件上传&lt;br&gt;backupFileAsync()" style="html=1;align=left;spacingLeft=2;endArrow=block;rounded=0;edgeStyle=orthogonalEdgeStyle;curved=0;rounded=0;exitX=1;exitY=1;exitDx=0;exitDy=-5;exitPerimeter=0;entryX=1;entryY=0;entryDx=0;entryDy=5;entryPerimeter=0;" edge="1" target="oIaSWCsyc41wVR5_9SYv-107" parent="oIaSWCsyc41wVR5_9SYv-99" source="oIaSWCsyc41wVR5_9SYv-100">
          <mxGeometry relative="1" as="geometry">
            <mxPoint x="67.27999999999997" y="220" as="sourcePoint" />
            <Array as="points">
              <mxPoint x="90" y="235" />
              <mxPoint x="90" y="275" />
            </Array>
            <mxPoint x="72.27999999999997" y="250" as="targetPoint" />
            <mxPoint as="offset" />
          </mxGeometry>
        </mxCell>
        <mxCell id="oIaSWCsyc41wVR5_9SYv-143" value="" style="html=1;points=[[0,0,0,0,5],[0,1,0,0,-5],[1,0,0,0,5],[1,1,0,0,-5]];perimeter=orthogonalPerimeter;outlineConnect=0;targetShapes=umlLifeline;portConstraint=eastwest;newEdgeStyle={&quot;curved&quot;:0,&quot;rounded&quot;:0};" vertex="1" parent="oIaSWCsyc41wVR5_9SYv-99">
          <mxGeometry x="45" y="1100" width="10" height="470" as="geometry" />
        </mxCell>
        <mxCell id="oIaSWCsyc41wVR5_9SYv-145" value="文件上传到服务端&lt;br&gt;uploadFileToMinio()" style="html=1;align=left;spacingLeft=2;endArrow=block;rounded=0;edgeStyle=orthogonalEdgeStyle;curved=0;rounded=0;entryX=1;entryY=0;entryDx=0;entryDy=5;entryPerimeter=0;" edge="1" target="oIaSWCsyc41wVR5_9SYv-143" parent="oIaSWCsyc41wVR5_9SYv-99" source="oIaSWCsyc41wVR5_9SYv-107">
          <mxGeometry x="0.0034" relative="1" as="geometry">
            <mxPoint x="150" y="880" as="sourcePoint" />
            <Array as="points">
              <mxPoint x="180" y="870" />
              <mxPoint x="180" y="1105" />
            </Array>
            <mxPoint x="160" y="1000" as="targetPoint" />
            <mxPoint as="offset" />
          </mxGeometry>
        </mxCell>
        <mxCell id="oIaSWCsyc41wVR5_9SYv-155" value="" style="html=1;points=[[0,0,0,0,5],[0,1,0,0,-5],[1,0,0,0,5],[1,1,0,0,-5]];perimeter=orthogonalPerimeter;outlineConnect=0;targetShapes=umlLifeline;portConstraint=eastwest;newEdgeStyle={&quot;curved&quot;:0,&quot;rounded&quot;:0};" vertex="1" parent="oIaSWCsyc41wVR5_9SYv-99">
          <mxGeometry x="45" y="1642" width="10" height="268" as="geometry" />
        </mxCell>
        <mxCell id="oIaSWCsyc41wVR5_9SYv-169" value="return&amp;nbsp;uploadFileToMinio（） 方法结果" style="html=1;verticalAlign=bottom;endArrow=open;dashed=1;endSize=8;curved=0;rounded=0;" edge="1" parent="oIaSWCsyc41wVR5_9SYv-99" source="oIaSWCsyc41wVR5_9SYv-99" target="oIaSWCsyc41wVR5_9SYv-107">
          <mxGeometry relative="1" as="geometry">
            <mxPoint x="180" y="1539" as="sourcePoint" />
            <mxPoint x="180" y="1050" as="targetPoint" />
            <Array as="points">
              <mxPoint x="300" y="1525" />
              <mxPoint x="305" y="920" />
            </Array>
            <mxPoint as="offset" />
          </mxGeometry>
        </mxCell>
        <mxCell id="oIaSWCsyc41wVR5_9SYv-101" value="启用多线程上传&lt;br&gt;backupFileInBatch()" style="html=1;verticalAlign=bottom;endArrow=block;curved=0;rounded=0;exitX=1;exitY=1;exitDx=0;exitDy=-5;exitPerimeter=0;" edge="1" parent="1" source="oIaSWCsyc41wVR5_9SYv-92" target="oIaSWCsyc41wVR5_9SYv-100">
          <mxGeometry x="0.0051" width="80" relative="1" as="geometry">
            <mxPoint x="120" y="490" as="sourcePoint" />
            <mxPoint x="200" y="490" as="targetPoint" />
            <mxPoint as="offset" />
          </mxGeometry>
        </mxCell>
        <mxCell id="oIaSWCsyc41wVR5_9SYv-108" value="TcpHandleBLL" style="shape=umlLifeline;perimeter=lifelinePerimeter;whiteSpace=wrap;html=1;container=1;dropTarget=0;collapsible=0;recursiveResize=0;outlineConnect=0;portConstraint=eastwest;newEdgeStyle={&quot;curved&quot;:0,&quot;rounded&quot;:0};" vertex="1" parent="1">
          <mxGeometry x="567.5" y="480" width="100" height="1760" as="geometry" />
        </mxCell>
        <mxCell id="oIaSWCsyc41wVR5_9SYv-109" value="" style="html=1;points=[[0,0,0,0,5],[0,1,0,0,-5],[1,0,0,0,5],[1,1,0,0,-5]];perimeter=orthogonalPerimeter;outlineConnect=0;targetShapes=umlLifeline;portConstraint=eastwest;newEdgeStyle={&quot;curved&quot;:0,&quot;rounded&quot;:0};" vertex="1" parent="oIaSWCsyc41wVR5_9SYv-108">
          <mxGeometry x="45" y="140" width="10" height="80" as="geometry" />
        </mxCell>
        <mxCell id="oIaSWCsyc41wVR5_9SYv-173" value="" style="html=1;points=[[0,0,0,0,5],[0,1,0,0,-5],[1,0,0,0,5],[1,1,0,0,-5]];perimeter=orthogonalPerimeter;outlineConnect=0;targetShapes=umlLifeline;portConstraint=eastwest;newEdgeStyle={&quot;curved&quot;:0,&quot;rounded&quot;:0};" vertex="1" parent="oIaSWCsyc41wVR5_9SYv-108">
          <mxGeometry x="45.5" y="1370" width="10" height="80" as="geometry" />
        </mxCell>
        <mxCell id="oIaSWCsyc41wVR5_9SYv-112" value="通知UI文件正在上传&lt;br&gt;UploadFileStart（）" style="html=1;verticalAlign=bottom;endArrow=block;curved=0;rounded=0;exitX=0.8;exitY=0.388;exitDx=0;exitDy=0;exitPerimeter=0;entryX=0;entryY=0;entryDx=0;entryDy=5;entryPerimeter=0;" edge="1" parent="1" target="oIaSWCsyc41wVR5_9SYv-109">
          <mxGeometry width="80" relative="1" as="geometry">
            <mxPoint x="323" y="624.04" as="sourcePoint" />
            <mxPoint x="605" y="624.04" as="targetPoint" />
          </mxGeometry>
        </mxCell>
        <mxCell id="oIaSWCsyc41wVR5_9SYv-113" value="FileHelper" style="shape=umlLifeline;perimeter=lifelinePerimeter;whiteSpace=wrap;html=1;container=1;dropTarget=0;collapsible=0;recursiveResize=0;outlineConnect=0;portConstraint=eastwest;newEdgeStyle={&quot;curved&quot;:0,&quot;rounded&quot;:0};" vertex="1" parent="1">
          <mxGeometry x="760" y="480" width="100" height="710" as="geometry" />
        </mxCell>
        <mxCell id="oIaSWCsyc41wVR5_9SYv-114" value="" style="html=1;points=[[0,0,0,0,5],[0,1,0,0,-5],[1,0,0,0,5],[1,1,0,0,-5]];perimeter=orthogonalPerimeter;outlineConnect=0;targetShapes=umlLifeline;portConstraint=eastwest;newEdgeStyle={&quot;curved&quot;:0,&quot;rounded&quot;:0};" vertex="1" parent="oIaSWCsyc41wVR5_9SYv-113">
          <mxGeometry x="45" y="160" width="10" height="200" as="geometry" />
        </mxCell>
        <mxCell id="oIaSWCsyc41wVR5_9SYv-115" value="获取文件Hash&lt;br&gt;GetFileMd5()" style="html=1;verticalAlign=bottom;endArrow=block;curved=0;rounded=0;" edge="1" parent="1" target="oIaSWCsyc41wVR5_9SYv-114">
          <mxGeometry x="0.7792" width="80" relative="1" as="geometry">
            <mxPoint x="325" y="659" as="sourcePoint" />
            <mxPoint x="440" y="659" as="targetPoint" />
            <mxPoint as="offset" />
          </mxGeometry>
        </mxCell>
        <mxCell id="oIaSWCsyc41wVR5_9SYv-116" value="return 文件Hash" style="html=1;verticalAlign=bottom;endArrow=open;dashed=1;endSize=8;curved=0;rounded=0;" edge="1" parent="1">
          <mxGeometry relative="1" as="geometry">
            <mxPoint x="805" y="691" as="sourcePoint" />
            <mxPoint x="319.5" y="691" as="targetPoint" />
          </mxGeometry>
        </mxCell>
        <mxCell id="oIaSWCsyc41wVR5_9SYv-119" value="【shp或&lt;br style=&quot;border-color: var(--border-color);&quot;&gt;gdb文件】" style="text;html=1;align=center;verticalAlign=middle;resizable=0;points=[];autosize=1;strokeColor=none;fillColor=none;" vertex="1" parent="1">
          <mxGeometry x="245" y="760" width="80" height="40" as="geometry" />
        </mxCell>
        <mxCell id="oIaSWCsyc41wVR5_9SYv-123" value="获取文件组合hash&lt;br&gt;GetMd5SysFile()" style="html=1;verticalAlign=bottom;endArrow=block;curved=0;rounded=0;" edge="1" parent="1">
          <mxGeometry width="80" relative="1" as="geometry">
            <mxPoint x="325" y="772" as="sourcePoint" />
            <mxPoint x="805" y="772" as="targetPoint" />
          </mxGeometry>
        </mxCell>
        <mxCell id="oIaSWCsyc41wVR5_9SYv-125" value="ChunkFileBll" style="shape=umlLifeline;perimeter=lifelinePerimeter;whiteSpace=wrap;html=1;container=1;dropTarget=0;collapsible=0;recursiveResize=0;outlineConnect=0;portConstraint=eastwest;newEdgeStyle={&quot;curved&quot;:0,&quot;rounded&quot;:0};" vertex="1" parent="1">
          <mxGeometry x="930" y="480" width="100" height="1780" as="geometry" />
        </mxCell>
        <mxCell id="oIaSWCsyc41wVR5_9SYv-126" value="" style="html=1;points=[[0,0,0,0,5],[0,1,0,0,-5],[1,0,0,0,5],[1,1,0,0,-5]];perimeter=orthogonalPerimeter;outlineConnect=0;targetShapes=umlLifeline;portConstraint=eastwest;newEdgeStyle={&quot;curved&quot;:0,&quot;rounded&quot;:0};" vertex="1" parent="oIaSWCsyc41wVR5_9SYv-125">
          <mxGeometry x="45" y="380" width="10" height="80" as="geometry" />
        </mxCell>
        <mxCell id="oIaSWCsyc41wVR5_9SYv-175" value="" style="html=1;points=[[0,0,0,0,5],[0,1,0,0,-5],[1,0,0,0,5],[1,1,0,0,-5]];perimeter=orthogonalPerimeter;outlineConnect=0;targetShapes=umlLifeline;portConstraint=eastwest;newEdgeStyle={&quot;curved&quot;:0,&quot;rounded&quot;:0};" vertex="1" parent="oIaSWCsyc41wVR5_9SYv-125">
          <mxGeometry x="45" y="1530" width="10" height="60" as="geometry" />
        </mxCell>
        <mxCell id="oIaSWCsyc41wVR5_9SYv-127" value="return 文件组合hash" style="html=1;verticalAlign=bottom;endArrow=open;dashed=1;endSize=8;curved=0;rounded=0;" edge="1" parent="1">
          <mxGeometry x="-0.0208" y="-7" relative="1" as="geometry">
            <mxPoint x="805" y="813" as="sourcePoint" />
            <mxPoint x="325" y="813" as="targetPoint" />
            <mxPoint as="offset" />
          </mxGeometry>
        </mxCell>
        <mxCell id="oIaSWCsyc41wVR5_9SYv-129" value="加载本地文件分片上传信息&lt;br&gt;LoadChunkInfo()" style="html=1;verticalAlign=bottom;endArrow=block;curved=0;rounded=0;entryX=0;entryY=0;entryDx=0;entryDy=5;entryPerimeter=0;" edge="1" parent="1">
          <mxGeometry width="80" relative="1" as="geometry">
            <mxPoint x="325" y="879" as="sourcePoint" />
            <mxPoint x="975" y="879" as="targetPoint" />
            <mxPoint as="offset" />
          </mxGeometry>
        </mxCell>
        <mxCell id="oIaSWCsyc41wVR5_9SYv-130" value="return&amp;nbsp;fileUploadInfo 本地文件分片上传信息" style="html=1;verticalAlign=bottom;endArrow=open;dashed=1;endSize=8;curved=0;rounded=0;" edge="1" parent="1">
          <mxGeometry relative="1" as="geometry">
            <mxPoint x="975" y="930" as="sourcePoint" />
            <mxPoint x="325" y="930" as="targetPoint" />
            <mxPoint as="offset" />
          </mxGeometry>
        </mxCell>
        <mxCell id="oIaSWCsyc41wVR5_9SYv-132" value="【fileUploadInfo&lt;br style=&quot;border-color: var(--border-color);&quot;&gt;等于空】" style="text;html=1;align=center;verticalAlign=middle;resizable=0;points=[];autosize=1;strokeColor=none;fillColor=none;" vertex="1" parent="1">
          <mxGeometry x="215" y="985" width="110" height="40" as="geometry" />
        </mxCell>
        <mxCell id="oIaSWCsyc41wVR5_9SYv-134" value="获取文件上传的Url，大文件则切片&lt;br&gt;GetbackupFileUploadInfo()" style="html=1;verticalAlign=bottom;endArrow=block;curved=0;rounded=0;" edge="1" parent="1" target="oIaSWCsyc41wVR5_9SYv-133">
          <mxGeometry width="80" relative="1" as="geometry">
            <mxPoint x="325" y="991" as="sourcePoint" />
            <mxPoint x="1120.25" y="991" as="targetPoint" />
          </mxGeometry>
        </mxCell>
        <mxCell id="oIaSWCsyc41wVR5_9SYv-135" value="alt" style="shape=umlFrame;whiteSpace=wrap;html=1;pointerEvents=0;fillColor=#ffe6cc;strokeColor=#d79b00;" vertex="1" parent="1">
          <mxGeometry x="240" y="1040" width="770" height="80" as="geometry" />
        </mxCell>
        <mxCell id="oIaSWCsyc41wVR5_9SYv-137" value="【单文件上传】" style="text;html=1;align=center;verticalAlign=middle;resizable=0;points=[];autosize=1;strokeColor=none;fillColor=none;" vertex="1" parent="1">
          <mxGeometry x="218" y="1475" width="110" height="30" as="geometry" />
        </mxCell>
        <mxCell id="oIaSWCsyc41wVR5_9SYv-138" value="" style="html=1;points=[[0,0,0,0,5],[0,1,0,0,-5],[1,0,0,0,5],[1,1,0,0,-5]];perimeter=orthogonalPerimeter;outlineConnect=0;targetShapes=umlLifeline;portConstraint=eastwest;newEdgeStyle={&quot;curved&quot;:0,&quot;rounded&quot;:0};" vertex="1" parent="1">
          <mxGeometry x="975" y="1040" width="10" height="80" as="geometry" />
        </mxCell>
        <mxCell id="oIaSWCsyc41wVR5_9SYv-140" value="return 文件上传Url" style="html=1;verticalAlign=bottom;endArrow=open;dashed=1;endSize=8;curved=0;rounded=0;exitX=0;exitY=1;exitDx=0;exitDy=-5;exitPerimeter=0;" edge="1" parent="1" source="oIaSWCsyc41wVR5_9SYv-133" target="oIaSWCsyc41wVR5_9SYv-107">
          <mxGeometry relative="1" as="geometry">
            <mxPoint x="1080" y="1020" as="sourcePoint" />
            <mxPoint x="1000" y="1020" as="targetPoint" />
          </mxGeometry>
        </mxCell>
        <mxCell id="oIaSWCsyc41wVR5_9SYv-141" value="删除文件缓存&lt;br&gt;DeleteChunkFileInfo()" style="html=1;verticalAlign=bottom;endArrow=block;curved=0;rounded=0;" edge="1" parent="1">
          <mxGeometry width="80" relative="1" as="geometry">
            <mxPoint x="325" y="1073" as="sourcePoint" />
            <mxPoint x="975" y="1073" as="targetPoint" />
          </mxGeometry>
        </mxCell>
        <mxCell id="oIaSWCsyc41wVR5_9SYv-142" value="保存切片信息到本地&lt;br&gt;SaveChunkFileInfo()" style="html=1;verticalAlign=bottom;endArrow=block;curved=0;rounded=0;" edge="1" parent="1">
          <mxGeometry width="80" relative="1" as="geometry">
            <mxPoint x="325" y="1108" as="sourcePoint" />
            <mxPoint x="975" y="1108" as="targetPoint" />
            <mxPoint as="offset" />
          </mxGeometry>
        </mxCell>
        <mxCell id="oIaSWCsyc41wVR5_9SYv-147" value="alt" style="shape=umlFrame;whiteSpace=wrap;html=1;pointerEvents=0;fillColor=#ffe6cc;strokeColor=#d79b00;" vertex="1" parent="1">
          <mxGeometry x="220" y="1440" width="990" height="390" as="geometry" />
        </mxCell>
        <mxCell id="oIaSWCsyc41wVR5_9SYv-148" value="文件上传到Minio&lt;br&gt;UploadFileByPresingedUrl()" style="html=1;verticalAlign=bottom;endArrow=block;curved=0;rounded=0;" edge="1" parent="1" target="oIaSWCsyc41wVR5_9SYv-146">
          <mxGeometry x="0.0013" width="80" relative="1" as="geometry">
            <mxPoint x="325" y="1479" as="sourcePoint" />
            <mxPoint x="1135" y="1479" as="targetPoint" />
            <mxPoint as="offset" />
          </mxGeometry>
        </mxCell>
        <mxCell id="oIaSWCsyc41wVR5_9SYv-149" value="BackupFileMinioBLL" style="shape=umlLifeline;perimeter=lifelinePerimeter;whiteSpace=wrap;html=1;container=1;dropTarget=0;collapsible=0;recursiveResize=0;outlineConnect=0;portConstraint=eastwest;newEdgeStyle={&quot;curved&quot;:0,&quot;rounded&quot;:0};" vertex="1" parent="1">
          <mxGeometry x="1090" y="480" width="120" height="1800" as="geometry" />
        </mxCell>
        <mxCell id="oIaSWCsyc41wVR5_9SYv-146" value="" style="html=1;points=[[0,0,0,0,5],[0,1,0,0,-5],[1,0,0,0,5],[1,1,0,0,-5]];perimeter=orthogonalPerimeter;outlineConnect=0;targetShapes=umlLifeline;portConstraint=eastwest;newEdgeStyle={&quot;curved&quot;:0,&quot;rounded&quot;:0};" vertex="1" parent="oIaSWCsyc41wVR5_9SYv-149">
          <mxGeometry x="55" y="970" width="10" height="790" as="geometry" />
        </mxCell>
        <mxCell id="oIaSWCsyc41wVR5_9SYv-151" value="文件上传结果" style="html=1;verticalAlign=bottom;endArrow=open;dashed=1;endSize=8;curved=0;rounded=0;" edge="1" parent="1" source="oIaSWCsyc41wVR5_9SYv-146">
          <mxGeometry relative="1" as="geometry">
            <mxPoint x="1135" y="1515" as="sourcePoint" />
            <mxPoint x="325" y="1515" as="targetPoint" />
          </mxGeometry>
        </mxCell>
        <mxCell id="oIaSWCsyc41wVR5_9SYv-152" value="" style="endArrow=none;dashed=1;html=1;rounded=0;entryX=1;entryY=0.614;entryDx=0;entryDy=0;entryPerimeter=0;" edge="1" parent="1">
          <mxGeometry width="50" height="50" relative="1" as="geometry">
            <mxPoint x="240" y="1541" as="sourcePoint" />
            <mxPoint x="1210" y="1546.96" as="targetPoint" />
          </mxGeometry>
        </mxCell>
        <mxCell id="oIaSWCsyc41wVR5_9SYv-153" value="【文件分块上传】" style="text;html=1;align=center;verticalAlign=middle;resizable=0;points=[];autosize=1;strokeColor=none;fillColor=none;" vertex="1" parent="1">
          <mxGeometry x="208" y="1570" width="120" height="30" as="geometry" />
        </mxCell>
        <mxCell id="oIaSWCsyc41wVR5_9SYv-154" value="【文件分块&lt;br&gt;上传】" style="text;html=1;align=center;verticalAlign=middle;resizable=0;points=[];autosize=1;strokeColor=none;fillColor=none;" vertex="1" parent="1">
          <mxGeometry x="245" y="1075" width="80" height="40" as="geometry" />
        </mxCell>
        <mxCell id="oIaSWCsyc41wVR5_9SYv-156" value="文件分块上传（多线程上传）&lt;br&gt;uploadFileByChunk()" style="html=1;align=left;spacingLeft=2;endArrow=block;rounded=0;edgeStyle=orthogonalEdgeStyle;curved=0;rounded=0;entryX=1;entryY=0;entryDx=0;entryDy=5;entryPerimeter=0;" edge="1" parent="1" target="oIaSWCsyc41wVR5_9SYv-155">
          <mxGeometry x="0.0014" y="25" relative="1" as="geometry">
            <mxPoint x="325" y="1572" as="sourcePoint" />
            <Array as="points">
              <mxPoint x="495" y="1572" />
              <mxPoint x="495" y="1967" />
            </Array>
            <mxPoint x="370" y="1807" as="targetPoint" />
            <mxPoint as="offset" />
          </mxGeometry>
        </mxCell>
        <mxCell id="oIaSWCsyc41wVR5_9SYv-157" value="文件上传到Minio&lt;br&gt;UploadFileByPresingedUrl()" style="html=1;verticalAlign=bottom;endArrow=block;curved=0;rounded=0;" edge="1" parent="1">
          <mxGeometry x="0.0013" width="80" relative="1" as="geometry">
            <mxPoint x="325" y="2002" as="sourcePoint" />
            <mxPoint x="1145" y="2002" as="targetPoint" />
            <mxPoint as="offset" />
          </mxGeometry>
        </mxCell>
        <mxCell id="oIaSWCsyc41wVR5_9SYv-160" value="切片文件上传结果" style="html=1;verticalAlign=bottom;endArrow=open;dashed=1;endSize=8;curved=0;rounded=0;" edge="1" parent="1">
          <mxGeometry relative="1" as="geometry">
            <mxPoint x="1145" y="2079" as="sourcePoint" />
            <mxPoint x="325" y="2079" as="targetPoint" />
          </mxGeometry>
        </mxCell>
        <mxCell id="oIaSWCsyc41wVR5_9SYv-163" value="alt" style="shape=umlFrame;whiteSpace=wrap;html=1;pointerEvents=0;fillColor=#ffe6cc;strokeColor=#d79b00;" vertex="1" parent="1">
          <mxGeometry x="220" y="2129" width="1080" height="80" as="geometry" />
        </mxCell>
        <mxCell id="oIaSWCsyc41wVR5_9SYv-164" value="【文件分块&lt;br&gt;上传成功】" style="text;html=1;align=center;verticalAlign=middle;resizable=0;points=[];autosize=1;strokeColor=none;fillColor=none;" vertex="1" parent="1">
          <mxGeometry x="233" y="2164" width="80" height="40" as="geometry" />
        </mxCell>
        <mxCell id="oIaSWCsyc41wVR5_9SYv-166" value="合并文件&lt;br&gt;CompleteMultipartUpload()" style="html=1;verticalAlign=bottom;endArrow=block;curved=0;rounded=0;" edge="1" parent="1">
          <mxGeometry width="80" relative="1" as="geometry">
            <mxPoint x="325" y="2164" as="sourcePoint" />
            <mxPoint x="1232" y="2164" as="targetPoint" />
          </mxGeometry>
        </mxCell>
        <mxCell id="oIaSWCsyc41wVR5_9SYv-167" value="return 合并文件结果" style="html=1;verticalAlign=bottom;endArrow=open;dashed=1;endSize=8;curved=0;rounded=0;" edge="1" parent="1">
          <mxGeometry relative="1" as="geometry">
            <mxPoint x="1232" y="2200" as="sourcePoint" />
            <mxPoint x="325" y="2200" as="targetPoint" />
          </mxGeometry>
        </mxCell>
        <mxCell id="oIaSWCsyc41wVR5_9SYv-168" value="return&amp;nbsp;uploadFileByChunk()结果" style="html=1;verticalAlign=bottom;endArrow=open;dashed=1;endSize=8;curved=0;rounded=0;entryX=0.975;entryY=1.2;entryDx=0;entryDy=0;entryPerimeter=0;exitX=1;exitY=1;exitDx=0;exitDy=-5;exitPerimeter=0;" edge="1" parent="1" source="oIaSWCsyc41wVR5_9SYv-155">
          <mxGeometry x="0.0011" relative="1" as="geometry">
            <mxPoint x="325" y="2079" as="sourcePoint" />
            <mxPoint x="325" y="1590" as="targetPoint" />
            <Array as="points">
              <mxPoint x="440" y="2225" />
              <mxPoint x="440" y="2079" />
              <mxPoint x="450" y="1594" />
            </Array>
            <mxPoint as="offset" />
          </mxGeometry>
        </mxCell>
        <mxCell id="oIaSWCsyc41wVR5_9SYv-171" value="更新文件上传信息&lt;br&gt;UpdateBackupFile()" style="html=1;verticalAlign=bottom;endArrow=block;curved=0;rounded=0;" edge="1" parent="1" source="oIaSWCsyc41wVR5_9SYv-107" target="oIaSWCsyc41wVR5_9SYv-170">
          <mxGeometry width="80" relative="1" as="geometry">
            <mxPoint x="360" y="1300" as="sourcePoint" />
            <mxPoint x="440" y="1300" as="targetPoint" />
          </mxGeometry>
        </mxCell>
        <mxCell id="oIaSWCsyc41wVR5_9SYv-172" value="return 更新文件上传信息" style="html=1;verticalAlign=bottom;endArrow=open;dashed=1;endSize=8;curved=0;rounded=0;entryX=1;entryY=1;entryDx=0;entryDy=-5;entryPerimeter=0;" edge="1" parent="1" source="oIaSWCsyc41wVR5_9SYv-170" target="oIaSWCsyc41wVR5_9SYv-107">
          <mxGeometry x="0.0011" relative="1" as="geometry">
            <mxPoint x="1040" y="1330" as="sourcePoint" />
            <mxPoint x="960" y="1330" as="targetPoint" />
            <mxPoint as="offset" />
          </mxGeometry>
        </mxCell>
        <mxCell id="oIaSWCsyc41wVR5_9SYv-174" value="通知UI文件上传完成&lt;br&gt;UploadFileEnd（）" style="html=1;verticalAlign=bottom;endArrow=block;curved=0;rounded=0;exitX=1;exitY=1;exitDx=0;exitDy=-5;exitPerimeter=0;" edge="1" parent="1" source="oIaSWCsyc41wVR5_9SYv-143" target="oIaSWCsyc41wVR5_9SYv-173">
          <mxGeometry width="80" relative="1" as="geometry">
            <mxPoint x="340" y="1870" as="sourcePoint" />
            <mxPoint x="420" y="1870" as="targetPoint" />
            <mxPoint as="offset" />
          </mxGeometry>
        </mxCell>
        <mxCell id="oIaSWCsyc41wVR5_9SYv-176" value="保存切片信息到本地&lt;br&gt;SaveChunkUploadInfo（）" style="html=1;verticalAlign=bottom;endArrow=block;curved=0;rounded=0;" edge="1" parent="1">
          <mxGeometry width="80" relative="1" as="geometry">
            <mxPoint x="1145" y="2048" as="sourcePoint" />
            <mxPoint x="985" y="2048" as="targetPoint" />
          </mxGeometry>
        </mxCell>
      </root>
    </mxGraphModel>
  </diagram>
</mxfile>
